<svg display="none" xmlns="http://www.w3.org/2000/svg">
	<symbol id="p-20" viewBox="0 0 20 17">
		<g>
			<path opacity="0.2" d="M10.3751 16.7888C10.2084 17.0704 9.79159 17.0704 9.62486 16.7888L0.0586815 0.633543C-0.108047 0.351969 0.100365 0 0.433826 0H19.5662C19.8996 0 20.108 0.351967 19.9413 0.633541L10.3751 16.7888Z" fill="white"/>
		</g>
	</symbol>
	<symbol id="p-30" viewBox="0 0 20 17">
		<g>
			<path opacity="0.3" d="M10.3751 16.7888C10.2084 17.0704 9.79159 17.0704 9.62486 16.7888L0.0586815 0.633543C-0.108047 0.351969 0.100365 0 0.433826 0H19.5662C19.8996 0 20.108 0.351967 19.9413 0.633541L10.3751 16.7888Z" fill="white"/>
		</g>
	</symbol>
	<symbol id="p-60" viewBox="0 0 20 17">
		<g>
			<path opacity="0.6" d="M10.3751 16.7888C10.2084 17.0704 9.79159 17.0704 9.62486 16.7888L0.0586815 0.633543C-0.108047 0.351969 0.100365 0 0.433826 0H19.5662C19.8996 0 20.108 0.351967 19.9413 0.633541L10.3751 16.7888Z" fill="white"/>
		</g>
	</symbol>
	<symbol id="p-70" viewBox="0 0 20 17">
		<g>
			<path opacity="0.8" d="M10.3751 16.7888C10.2084 17.0704 9.79159 17.0704 9.62486 16.7888L0.0586815 0.633543C-0.108047 0.351969 0.100365 0 0.433826 0H19.5662C19.8996 0 20.108 0.351967 19.9413 0.633541L10.3751 16.7888Z" fill="white"/>
		</g>
	</symbol>
	<symbol id="p-80" viewBox="0 0 20 17">
		<g>
			<path opacity="0.8" d="M10.3751 16.7888C10.2084 17.0704 9.79159 17.0704 9.62486 16.7888L0.0586815 0.633543C-0.108047 0.351969 0.100365 0 0.433826 0H19.5662C19.8996 0 20.108 0.351967 19.9413 0.633541L10.3751 16.7888Z" fill="white"/>
		</g>
	</symbol>
	<symbol id="p-90" viewBox="0 0 20 17">
		<g>
			<path opacity="0.9" d="M10.3751 16.7888C10.2084 17.0704 9.79159 17.0704 9.62486 16.7888L0.0586815 0.633543C-0.108047 0.351969 0.100365 0 0.433826 0H19.5662C19.8996 0 20.108 0.351967 19.9413 0.633541L10.3751 16.7888Z" fill="white"/>
		</g>
	</symbol>
	<symbol id="p-100" viewBox="">
		<g>
			<path d="M10.3751 16.7888C10.2084 17.0704 9.79159 17.0704 9.62486 16.7888L0.0586815 0.633543C-0.108047 0.351969 0.100365 0 0.433826 0H19.5662C19.8996 0 20.108 0.351967 19.9413 0.633541L10.3751 16.7888Z" fill="white"/>
		</g>
	</symbol>
</svg>